<?xml version="1.0" encoding="UTF-8"?><svg id="Layer_5" xmlns="http://www.w3.org/2000/svg" width="407.62" height="417.29" xmlns:xlink="http://www.w3.org/1999/xlink" viewBox="0 0 407.62 417.29"><defs><style>.cls-1{fill:none;}.cls-2{clip-path:url(#clippath);}.cls-3{fill:#e8e8e8;}.cls-4{fill:#091431;}</style><clipPath id="clippath"><circle class="cls-1" cx="204.12" cy="208.63" r="203.5"/></clipPath></defs><g class="cls-2"><circle class="cls-4" cx="203.5" cy="208.01" r="203.5"/><path class="cls-3" d="m166.62,151.45c-17.79-4.43-33.27-12.11-46.46-23.04-13.18-10.92-21.04-26.12-23.58-45.62-2.54-19.49,4.4-36.52,20.8-51.07,16.41-14.55,41.85-24.07,76.34-28.56,34.48-4.49,62.26-1.99,83.32,7.46,21.05,9.46,32.61,22.12,34.68,37.97,1,7.71-1.08,14.3-6.25,19.77-5.17,5.47-10.55,8.56-16.11,9.29-10.71,1.39-18.12-.26-22.21-4.95,2.18-3.33,2.7-9.39,1.56-18.17-1.14-8.78-8.83-15.94-23.06-21.51-14.23-5.55-29.49-7.27-45.76-5.15-16.29,2.12-29.39,6.88-39.32,14.27-9.93,7.4-14.1,17.19-12.51,29.4,1.59,12.21,9.07,22.02,22.46,29.43,13.38,7.41,29.14,12.99,47.27,16.72,18.13,3.75,36.32,7.92,54.56,12.51,18.24,4.6,34.29,12.43,48.15,23.47,13.86,11.05,21.98,25.79,24.38,44.21,3.57,27.42-5.66,49.42-27.68,66.02s-52.42,27.41-91.19,32.45c-38.78,5.05-71.73-2.1-98.86-21.45-27.13-19.34-42.87-45.72-47.22-79.14-1.56-11.99-.43-21.73,3.39-29.2,3.83-7.46,8.73-11.59,14.73-12.37,11.14-1.45,17.81-.36,20.03,3.28l1.54,1.76c-1.73,6.76-1.99,14.86-.76,24.28,3.74,28.71,15.18,51.4,34.35,68.07,19.16,16.68,43.52,23.09,73.09,19.24,45.41-5.91,66.24-24.96,62.49-57.15-3.18-24.42-26.04-41.05-68.58-49.89-17.92-3.76-35.77-7.86-53.56-12.31Z"/><path class="cls-3" d="m242.54,265.84c17.79,4.43,33.27,12.11,46.46,23.04,13.18,10.92,21.04,26.12,23.58,45.62,2.54,19.49-4.4,36.52-20.8,51.07-16.41,14.55-41.85,24.07-76.34,28.56-34.48,4.49-62.26,1.99-83.32-7.46-21.05-9.46-32.61-22.12-34.68-37.97-1-7.71,1.08-14.3,6.25-19.77,5.17-5.47,10.55-8.56,16.11-9.29,10.71-1.39,18.12.26,22.21,4.95-2.18,3.33-2.7,9.39-1.56,18.17,1.14,8.78,8.83,15.94,23.06,21.51,14.23,5.55,29.49,7.27,45.76,5.15,16.29-2.12,29.39-6.88,39.32-14.27,9.93-7.4,14.1-17.19,12.51-29.4-1.59-12.21-9.07-22.02-22.46-29.43-13.38-7.41-29.14-12.99-47.27-16.72-18.13-3.75-36.32-7.92-54.56-12.51-18.24-4.6-34.29-12.43-48.15-23.47-13.86-11.05-21.98-25.79-24.38-44.21-3.57-27.42,5.66-49.42,27.68-66.02,22.02-16.59,52.42-27.41,91.19-32.45,38.78-5.05,71.73,2.1,98.86,21.45,27.13,19.34,42.87,45.72,47.22,79.14,1.56,11.99.43,21.73-3.39,29.2-3.83,7.46-8.73,11.59-14.73,12.37-11.14,1.45-17.81.36-20.03-3.28l-1.54-1.76c1.73-6.76,1.99-14.86.76-24.28-3.74-28.71-15.18-51.4-34.35-68.07-19.16-16.68-43.52-23.09-73.09-19.24-45.41,5.91-66.24,24.96-62.49,57.15,3.18,24.42,26.04,41.05,68.58,49.89,17.92,3.76,35.77,7.86,53.56,12.31Z"/><ellipse class="cls-4" cx="204.55" cy="208.91" rx="64.32" ry="95.15" transform="translate(-13.56 403.62) rotate(-87.36)"/></g></svg>