<svg width="191" height="191" viewBox="0 0 191 191" fill="none" xmlns="http://www.w3.org/2000/svg">
<path d="M162.803 27.9325C144.918 10.0476 120.661 0 95.3677 0C70.0746 0 45.8175 10.0476 27.9325 27.9325C10.0476 45.8175 0 70.0746 0 95.3677C0 120.661 10.0476 144.918 27.9325 162.803C45.8175 180.688 70.0746 190.735 95.3677 190.735C120.661 190.735 144.918 180.688 162.803 162.803C180.688 144.918 190.735 120.661 190.735 95.3677C190.735 70.0746 180.688 45.8175 162.803 27.9325ZM95.3677 177.953C49.8309 177.953 12.7824 140.905 12.7824 95.3677C12.7824 49.8301 49.8301 12.7824 95.3677 12.7824C140.905 12.7824 177.953 49.8301 177.953 95.3677C177.953 140.905 140.905 177.953 95.3677 177.953Z" fill="#67C994"/>
<path d="M81.3627 115.363L52.0382 86.0391L43 95.0773L81.3627 133.44L148.27 66.5334L139.231 57.4951L81.3627 115.363Z" fill="#67C994"/>
</svg>
